<?xml version="1.0" encoding="UTF-8" standalone="no"?>
<!-- Created with Inkscape (http://www.inkscape.org/) -->

<svg
   width="768"
   height="256"
   viewBox="0 0 203.2 67.733335"
   version="1.1"
   id="svg5"
   sodipodi:docname="pieces.svg"
   inkscape:version="1.1.2 (0a00cf5339, 2022-02-04)"
   xmlns:inkscape="http://www.inkscape.org/namespaces/inkscape"
   xmlns:sodipodi="http://sodipodi.sourceforge.net/DTD/sodipodi-0.dtd"
   xmlns:xlink="http://www.w3.org/1999/xlink"
   xmlns="http://www.w3.org/2000/svg"
   xmlns:svg="http://www.w3.org/2000/svg">
  <sodipodi:namedview
     id="namedview7"
     pagecolor="#397d23"
     bordercolor="#666666"
     borderopacity="1.0"
     inkscape:pageshadow="2"
     inkscape:pageopacity="0"
     inkscape:pagecheckerboard="0"
     inkscape:document-units="px"
     showgrid="true"
     units="px"
     width="768px"
     inkscape:zoom="2.1997092"
     inkscape:cx="338.90843"
     inkscape:cy="106.15039"
     inkscape:window-width="2560"
     inkscape:window-height="1403"
     inkscape:window-x="0"
     inkscape:window-y="0"
     inkscape:window-maximized="1"
     inkscape:current-layer="layer1"
     showguides="true"
     inkscape:guide-bbox="true"
     objecttolerance="10000">
    <inkscape:grid
       type="xygrid"
       id="grid862"
       empspacing="16" />
    <sodipodi:guide
       position="0,67.733335"
       orientation="1,0"
       id="guide869" />
    <sodipodi:guide
       position="33.866667,67.733335"
       orientation="1,0"
       id="guide871" />
    <sodipodi:guide
       position="67.733333,67.733335"
       orientation="1,0"
       id="guide873" />
    <sodipodi:guide
       position="101.6,67.733335"
       orientation="1,0"
       id="guide875" />
    <sodipodi:guide
       position="135.46667,67.733335"
       orientation="1,0"
       id="guide877" />
    <sodipodi:guide
       position="169.33333,67.733335"
       orientation="1,0"
       id="guide879" />
    <sodipodi:guide
       position="203.2,33.866667"
       orientation="1,0"
       id="guide881" />
    <sodipodi:guide
       position="33.866667,67.733335"
       orientation="0,-1"
       id="guide883" />
    <sodipodi:guide
       position="33.866667,33.866667"
       orientation="0,-1"
       id="guide885" />
    <sodipodi:guide
       position="33.866667,-9.6254858e-13"
       orientation="0,-1"
       id="guide887" />
  </sodipodi:namedview>
  <defs
     id="defs2">
    <linearGradient
       inkscape:collect="always"
       id="linearGradient2938">
      <stop
         style="stop-color:#000000;stop-opacity:1"
         offset="0"
         id="stop2934" />
      <stop
         style="stop-color:#353535;stop-opacity:1"
         offset="1"
         id="stop2936" />
    </linearGradient>
    <linearGradient
       inkscape:collect="always"
       id="linearGradient2738">
      <stop
         style="stop-color:#000c00;stop-opacity:1;"
         offset="0"
         id="stop2734" />
      <stop
         style="stop-color:#393939;stop-opacity:1"
         offset="1"
         id="stop2736" />
    </linearGradient>
    <linearGradient
       inkscape:collect="always"
       id="linearGradient2282">
      <stop
         style="stop-color:#000c00;stop-opacity:1;"
         offset="0"
         id="stop2278" />
      <stop
         style="stop-color:#3b3b3b;stop-opacity:1"
         offset="1"
         id="stop2280" />
    </linearGradient>
    <linearGradient
       inkscape:collect="always"
       id="linearGradient1506">
      <stop
         style="stop-color:#000000;stop-opacity:1"
         offset="0"
         id="stop1502" />
      <stop
         style="stop-color:#393939;stop-opacity:1"
         offset="1"
         id="stop1504" />
    </linearGradient>
    <linearGradient
       inkscape:collect="always"
       id="linearGradient1114">
      <stop
         style="stop-color:#000000;stop-opacity:1;"
         offset="0"
         id="stop1110" />
      <stop
         style="stop-color:#3a3a3a;stop-opacity:1"
         offset="1"
         id="stop1112" />
    </linearGradient>
    <linearGradient
       inkscape:collect="always"
       id="linearGradient884">
      <stop
         style="stop-color:#000c00;stop-opacity:1;"
         offset="0"
         id="stop880" />
      <stop
         style="stop-color:#424242;stop-opacity:1"
         offset="1"
         id="stop882" />
    </linearGradient>
    <linearGradient
       inkscape:collect="always"
       id="linearGradient9717">
      <stop
         style="stop-color:#ffffff;stop-opacity:1;"
         offset="0"
         id="stop9713" />
      <stop
         style="stop-color:#696969;stop-opacity:1"
         offset="1"
         id="stop9715" />
    </linearGradient>
    <linearGradient
       inkscape:collect="always"
       id="linearGradient9359">
      <stop
         style="stop-color:#ffffff;stop-opacity:1;"
         offset="0"
         id="stop9355" />
      <stop
         style="stop-color:#7a7a7a;stop-opacity:1"
         offset="1"
         id="stop9357" />
    </linearGradient>
    <linearGradient
       inkscape:collect="always"
       id="linearGradient8409">
      <stop
         style="stop-color:#ffffff;stop-opacity:1;"
         offset="0"
         id="stop8405" />
      <stop
         style="stop-color:#a5a5a5;stop-opacity:1"
         offset="1"
         id="stop8407" />
    </linearGradient>
    <linearGradient
       inkscape:collect="always"
       id="linearGradient8112">
      <stop
         style="stop-color:#ffffff;stop-opacity:1;"
         offset="0"
         id="stop8108" />
      <stop
         style="stop-color:#979797;stop-opacity:1"
         offset="1"
         id="stop8110" />
    </linearGradient>
    <linearGradient
       inkscape:collect="always"
       id="linearGradient7738">
      <stop
         style="stop-color:#ffffff;stop-opacity:1;"
         offset="0"
         id="stop7734" />
      <stop
         style="stop-color:#909090;stop-opacity:1"
         offset="1"
         id="stop7736" />
    </linearGradient>
    <linearGradient
       inkscape:collect="always"
       id="linearGradient5698">
      <stop
         style="stop-color:#ffffff;stop-opacity:1"
         offset="0"
         id="stop5702" />
      <stop
         style="stop-color:#b2b2b2;stop-opacity:1"
         offset="1"
         id="stop5704" />
    </linearGradient>
    <linearGradient
       id="linearGradient5292"
       inkscape:swatch="solid">
      <stop
         style="stop-color:#ffffff;stop-opacity:1;"
         offset="0"
         id="stop5290" />
    </linearGradient>
    <linearGradient
       inkscape:collect="always"
       xlink:href="#linearGradient5698"
       id="linearGradient5700"
       x1="16.933334"
       y1="50.799999"
       x2="16.933334"
       y2="42.333332"
       gradientUnits="userSpaceOnUse" />
    <linearGradient
       inkscape:collect="always"
       xlink:href="#linearGradient7738"
       id="linearGradient7740"
       x1="50.799999"
       y1="50.799999"
       x2="50.799999"
       y2="38.100002"
       gradientUnits="userSpaceOnUse" />
    <linearGradient
       inkscape:collect="always"
       xlink:href="#linearGradient8112"
       id="linearGradient8114"
       x1="84.666664"
       y1="50.799999"
       x2="84.666672"
       y2="38.893749"
       gradientUnits="userSpaceOnUse" />
    <linearGradient
       inkscape:collect="always"
       xlink:href="#linearGradient8409"
       id="linearGradient8411"
       x1="118.53333"
       y1="55.033333"
       x2="118.53333"
       y2="42.333332"
       gradientUnits="userSpaceOnUse"
       gradientTransform="translate(0,-0.52916667)" />
    <linearGradient
       inkscape:collect="always"
       xlink:href="#linearGradient9359"
       id="linearGradient9361"
       x1="152.40001"
       y1="55.033333"
       x2="152.40001"
       y2="42.333332"
       gradientUnits="userSpaceOnUse" />
    <linearGradient
       inkscape:collect="always"
       xlink:href="#linearGradient9717"
       id="linearGradient9719"
       x1="186.26666"
       y1="50.799999"
       x2="186.26666"
       y2="38.100002"
       gradientUnits="userSpaceOnUse"
       gradientTransform="translate(0,-0.52916667)" />
    <linearGradient
       inkscape:collect="always"
       xlink:href="#linearGradient884"
       id="linearGradient886"
       x1="16.933334"
       y1="16.933334"
       x2="16.933334"
       y2="25.4"
       gradientUnits="userSpaceOnUse" />
    <linearGradient
       inkscape:collect="always"
       xlink:href="#linearGradient1114"
       id="linearGradient1116"
       x1="17.171562"
       y1="16.850653"
       x2="17.171562"
       y2="29.550653"
       gradientUnits="userSpaceOnUse"
       gradientTransform="translate(33.628438,0.08268086)" />
    <linearGradient
       inkscape:collect="always"
       xlink:href="#linearGradient1506"
       id="linearGradient1508"
       x1="84.666664"
       y1="16.933334"
       x2="84.666664"
       y2="29.633333"
       gradientUnits="userSpaceOnUse" />
    <linearGradient
       inkscape:collect="always"
       xlink:href="#linearGradient2282"
       id="linearGradient2284"
       x1="118.53333"
       y1="16.933334"
       x2="118.53333"
       y2="29.897919"
       gradientUnits="userSpaceOnUse"
       gradientTransform="translate(0,-0.52916667)" />
    <linearGradient
       inkscape:collect="always"
       xlink:href="#linearGradient2738"
       id="linearGradient2740"
       x1="152.40001"
       y1="16.933334"
       x2="152.40001"
       y2="29.633333"
       gradientUnits="userSpaceOnUse" />
    <linearGradient
       inkscape:collect="always"
       xlink:href="#linearGradient2938"
       id="linearGradient2940"
       x1="16.933338"
       y1="15.875"
       x2="16.933338"
       y2="28.575001"
       gradientUnits="userSpaceOnUse"
       gradientTransform="translate(169.33333,0.52916663)" />
    <filter
       style="color-interpolation-filters:sRGB;"
       inkscape:label="Drop Shadow"
       id="filter1542"
       x="-0.11687742"
       y="-0.11682986"
       width="1.2436705"
       height="1.269937">
      <feFlood
         flood-opacity="0.588235"
         flood-color="rgb(0,0,0)"
         result="flood"
         id="feFlood1532" />
      <feComposite
         in="flood"
         in2="SourceGraphic"
         operator="in"
         result="composite1"
         id="feComposite1534" />
      <feGaussianBlur
         in="composite1"
         stdDeviation="1"
         result="blur"
         id="feGaussianBlur1536" />
      <feOffset
         dx="0.12862"
         dy="0.590701"
         result="offset"
         id="feOffset1538" />
      <feComposite
         in="SourceGraphic"
         in2="offset"
         operator="over"
         result="composite2"
         id="feComposite1540" />
    </filter>
    <filter
       style="color-interpolation-filters:sRGB;"
       inkscape:label="Drop Shadow"
       id="filter1554"
       x="-0.16529808"
       y="-0.16529808"
       width="1.3375408"
       height="1.36249">
      <feFlood
         flood-opacity="0.588235"
         flood-color="rgb(0,0,0)"
         result="flood"
         id="feFlood1544" />
      <feComposite
         in="flood"
         in2="SourceGraphic"
         operator="in"
         result="composite1"
         id="feComposite1546" />
      <feGaussianBlur
         in="composite1"
         stdDeviation="1"
         result="blur"
         id="feGaussianBlur1548" />
      <feOffset
         dx="0.12862"
         dy="0.590701"
         result="offset"
         id="feOffset1550" />
      <feComposite
         in="SourceGraphic"
         in2="offset"
         operator="over"
         result="composite2"
         id="feComposite1552" />
    </filter>
    <filter
       style="color-interpolation-filters:sRGB;"
       inkscape:label="Drop Shadow"
       id="filter1566"
       x="-1.1570872"
       y="-1.1570872"
       width="3.3627866"
       height="3.5374314">
      <feFlood
         flood-opacity="0.588235"
         flood-color="rgb(0,0,0)"
         result="flood"
         id="feFlood1556" />
      <feComposite
         in="flood"
         in2="SourceGraphic"
         operator="in"
         result="composite1"
         id="feComposite1558" />
      <feGaussianBlur
         in="composite1"
         stdDeviation="1"
         result="blur"
         id="feGaussianBlur1560" />
      <feOffset
         dx="0.12862"
         dy="0.590701"
         result="offset"
         id="feOffset1562" />
      <feComposite
         in="SourceGraphic"
         in2="offset"
         operator="over"
         result="composite2"
         id="feComposite1564" />
    </filter>
    <filter
       style="color-interpolation-filters:sRGB;"
       inkscape:label="Drop Shadow"
       id="filter1578"
       x="-1.1570872"
       y="-1.1570872"
       width="3.3627866"
       height="3.5374314">
      <feFlood
         flood-opacity="0.588235"
         flood-color="rgb(0,0,0)"
         result="flood"
         id="feFlood1568" />
      <feComposite
         in="flood"
         in2="SourceGraphic"
         operator="in"
         result="composite1"
         id="feComposite1570" />
      <feGaussianBlur
         in="composite1"
         stdDeviation="1"
         result="blur"
         id="feGaussianBlur1572" />
      <feOffset
         dx="0.12862"
         dy="0.590701"
         result="offset"
         id="feOffset1574" />
      <feComposite
         in="SourceGraphic"
         in2="offset"
         operator="over"
         result="composite2"
         id="feComposite1576" />
    </filter>
    <filter
       style="color-interpolation-filters:sRGB;"
       inkscape:label="Drop Shadow"
       id="filter1590"
       x="-0.16529821"
       y="-0.12441797"
       width="1.337541"
       height="1.2728421">
      <feFlood
         flood-opacity="0.588235"
         flood-color="rgb(0,0,0)"
         result="flood"
         id="feFlood1580" />
      <feComposite
         in="flood"
         in2="SourceGraphic"
         operator="in"
         result="composite1"
         id="feComposite1582" />
      <feGaussianBlur
         in="composite1"
         stdDeviation="1"
         result="blur"
         id="feGaussianBlur1584" />
      <feOffset
         dx="0.12862"
         dy="0.590701"
         result="offset"
         id="feOffset1586" />
      <feComposite
         in="SourceGraphic"
         in2="offset"
         operator="over"
         result="composite2"
         id="feComposite1588" />
    </filter>
    <filter
       style="color-interpolation-filters:sRGB;"
       inkscape:label="Drop Shadow"
       id="filter1602"
       x="-0.15817316"
       y="-0.17522835"
       width="1.3224229"
       height="1.3338886">
      <feFlood
         flood-opacity="0.588235"
         flood-color="rgb(0,0,0)"
         result="flood"
         id="feFlood1592" />
      <feComposite
         in="flood"
         in2="SourceGraphic"
         operator="in"
         result="composite1"
         id="feComposite1594" />
      <feGaussianBlur
         in="composite1"
         stdDeviation="1"
         result="blur"
         id="feGaussianBlur1596" />
      <feOffset
         dx="0.12862"
         dy="0.590701"
         result="offset"
         id="feOffset1598" />
      <feComposite
         in="SourceGraphic"
         in2="offset"
         operator="over"
         result="composite2"
         id="feComposite1600" />
    </filter>
    <filter
       style="color-interpolation-filters:sRGB;"
       inkscape:label="Drop Shadow"
       id="filter1614"
       x="-0.16529821"
       y="-0.14285026"
       width="1.337541"
       height="1.3132631">
      <feFlood
         flood-opacity="0.588235"
         flood-color="rgb(0,0,0)"
         result="flood"
         id="feFlood1604" />
      <feComposite
         in="flood"
         in2="SourceGraphic"
         operator="in"
         result="composite1"
         id="feComposite1606" />
      <feGaussianBlur
         in="composite1"
         stdDeviation="1"
         result="blur"
         id="feGaussianBlur1608" />
      <feOffset
         dx="0.12862"
         dy="0.590701"
         result="offset"
         id="feOffset1610" />
      <feComposite
         in="SourceGraphic"
         in2="offset"
         operator="over"
         result="composite2"
         id="feComposite1612" />
    </filter>
    <filter
       style="color-interpolation-filters:sRGB;"
       inkscape:label="Drop Shadow"
       id="filter1626"
       x="-0.16529814"
       y="-0.13009107"
       width="1.3375409"
       height="1.2769361">
      <feFlood
         flood-opacity="0.588235"
         flood-color="rgb(0,0,0)"
         result="flood"
         id="feFlood1616" />
      <feComposite
         in="flood"
         in2="SourceGraphic"
         operator="in"
         result="composite1"
         id="feComposite1618" />
      <feGaussianBlur
         in="composite1"
         stdDeviation="1"
         result="blur"
         id="feGaussianBlur1620" />
      <feOffset
         dx="0.12862"
         dy="0.590701"
         result="offset"
         id="feOffset1622" />
      <feComposite
         in="SourceGraphic"
         in2="offset"
         operator="over"
         result="composite2"
         id="feComposite1624" />
    </filter>
    <filter
       style="color-interpolation-filters:sRGB;"
       inkscape:label="Drop Shadow"
       id="filter1638"
       x="-1.1070859"
       y="-1.1070859"
       width="3.2627841"
       height="3.4374289">
      <feFlood
         flood-opacity="0.588235"
         flood-color="rgb(0,0,0)"
         result="flood"
         id="feFlood1628" />
      <feComposite
         in="flood"
         in2="SourceGraphic"
         operator="in"
         result="composite1"
         id="feComposite1630" />
      <feGaussianBlur
         in="composite1"
         stdDeviation="1"
         result="blur"
         id="feGaussianBlur1632" />
      <feOffset
         dx="0.12862"
         dy="0.590701"
         result="offset"
         id="feOffset1634" />
      <feComposite
         in="SourceGraphic"
         in2="offset"
         operator="over"
         result="composite2"
         id="feComposite1636" />
    </filter>
    <filter
       style="color-interpolation-filters:sRGB;"
       inkscape:label="Drop Shadow"
       id="filter1650"
       x="-1.1070859"
       y="-1.1070859"
       width="3.2627841"
       height="3.4374289">
      <feFlood
         flood-opacity="0.588235"
         flood-color="rgb(0,0,0)"
         result="flood"
         id="feFlood1640" />
      <feComposite
         in="flood"
         in2="SourceGraphic"
         operator="in"
         result="composite1"
         id="feComposite1642" />
      <feGaussianBlur
         in="composite1"
         stdDeviation="1"
         result="blur"
         id="feGaussianBlur1644" />
      <feOffset
         dx="0.12862"
         dy="0.590701"
         result="offset"
         id="feOffset1646" />
      <feComposite
         in="SourceGraphic"
         in2="offset"
         operator="over"
         result="composite2"
         id="feComposite1648" />
    </filter>
    <filter
       style="color-interpolation-filters:sRGB;"
       inkscape:label="Drop Shadow"
       id="filter1662"
       x="-0.15815517"
       y="-0.1190415"
       width="1.323255"
       height="1.2620891">
      <feFlood
         flood-opacity="0.588235"
         flood-color="rgb(0,0,0)"
         result="flood"
         id="feFlood1652" />
      <feComposite
         in="flood"
         in2="SourceGraphic"
         operator="in"
         result="composite1"
         id="feComposite1654" />
      <feGaussianBlur
         in="composite1"
         stdDeviation="1"
         result="blur"
         id="feGaussianBlur1656" />
      <feOffset
         dx="0.12862"
         dy="0.590701"
         result="offset"
         id="feOffset1658" />
      <feComposite
         in="SourceGraphic"
         in2="offset"
         operator="over"
         result="composite2"
         id="feComposite1660" />
    </filter>
    <filter
       style="color-interpolation-filters:sRGB;"
       inkscape:label="Drop Shadow"
       id="filter1674"
       x="-0.14921549"
       y="-0.16103493"
       width="1.3045075"
       height="1.3139479">
      <feFlood
         flood-opacity="0.588235"
         flood-color="rgb(0,0,0)"
         result="flood"
         id="feFlood1664" />
      <feComposite
         in="flood"
         in2="SourceGraphic"
         operator="in"
         result="composite1"
         id="feComposite1666" />
      <feGaussianBlur
         in="composite1"
         stdDeviation="1"
         result="blur"
         id="feGaussianBlur1668" />
      <feOffset
         dx="0.12862"
         dy="0.590701"
         result="offset"
         id="feOffset1670" />
      <feComposite
         in="SourceGraphic"
         in2="offset"
         operator="over"
         result="composite2"
         id="feComposite1672" />
    </filter>
    <filter
       style="color-interpolation-filters:sRGB;"
       inkscape:label="Drop Shadow"
       id="filter1686"
       x="-0.15815517"
       y="-0.13667727"
       width="1.323255"
       height="1.3009171">
      <feFlood
         flood-opacity="0.588235"
         flood-color="rgb(0,0,0)"
         result="flood"
         id="feFlood1676" />
      <feComposite
         in="flood"
         in2="SourceGraphic"
         operator="in"
         result="composite1"
         id="feComposite1678" />
      <feGaussianBlur
         in="composite1"
         stdDeviation="1"
         result="blur"
         id="feGaussianBlur1680" />
      <feOffset
         dx="0.12862"
         dy="0.590701"
         result="offset"
         id="feOffset1682" />
      <feComposite
         in="SourceGraphic"
         in2="offset"
         operator="over"
         result="composite2"
         id="feComposite1684" />
    </filter>
    <filter
       style="color-interpolation-filters:sRGB;"
       inkscape:label="Drop Shadow"
       id="filter1698"
       x="-0.15815514"
       y="-0.15815514"
       width="1.3232549"
       height="1.3482041">
      <feFlood
         flood-opacity="0.588235"
         flood-color="rgb(0,0,0)"
         result="flood"
         id="feFlood1688" />
      <feComposite
         in="flood"
         in2="SourceGraphic"
         operator="in"
         result="composite1"
         id="feComposite1690" />
      <feGaussianBlur
         in="composite1"
         stdDeviation="1"
         result="blur"
         id="feGaussianBlur1692" />
      <feOffset
         dx="0.12862"
         dy="0.590701"
         result="offset"
         id="feOffset1694" />
      <feComposite
         in="SourceGraphic"
         in2="offset"
         operator="over"
         result="composite2"
         id="feComposite1696" />
    </filter>
    <filter
       style="color-interpolation-filters:sRGB;"
       inkscape:label="Drop Shadow"
       id="filter1710"
       x="-0.11182685"
       y="-0.11178147"
       width="1.2325683"
       height="1.2570932">
      <feFlood
         flood-opacity="0.588235"
         flood-color="rgb(0,0,0)"
         result="flood"
         id="feFlood1700" />
      <feComposite
         in="flood"
         in2="SourceGraphic"
         operator="in"
         result="composite1"
         id="feComposite1702" />
      <feGaussianBlur
         in="composite1"
         stdDeviation="1"
         result="blur"
         id="feGaussianBlur1704" />
      <feOffset
         dx="0.12862"
         dy="0.590701"
         result="offset"
         id="feOffset1706" />
      <feComposite
         in="SourceGraphic"
         in2="offset"
         operator="over"
         result="composite2"
         id="feComposite1708" />
    </filter>
    <filter
       style="color-interpolation-filters:sRGB;"
       inkscape:label="Drop Shadow"
       id="filter1722"
       x="-0.1581552"
       y="-0.12337249"
       width="1.323255"
       height="1.2648983">
      <feFlood
         flood-opacity="0.588235"
         flood-color="rgb(0,0,0)"
         result="flood"
         id="feFlood1712" />
      <feComposite
         in="flood"
         in2="SourceGraphic"
         operator="in"
         result="composite1"
         id="feComposite1714" />
      <feGaussianBlur
         in="composite1"
         stdDeviation="1"
         result="blur"
         id="feGaussianBlur1716" />
      <feOffset
         dx="0.12862"
         dy="0.590701"
         result="offset"
         id="feOffset1718" />
      <feComposite
         in="SourceGraphic"
         in2="offset"
         operator="over"
         result="composite2"
         id="feComposite1720" />
    </filter>
  </defs>
  <g
     inkscape:label="Layer 1"
     inkscape:groupmode="layer"
     id="layer1">
    <path
       id="path321"
       style="fill:url(#linearGradient1508);fill-opacity:1;fill-rule:evenodd;stroke:#e5e5e5;stroke-width:1.05833;stroke-miterlimit:4;stroke-dasharray:none;stroke-opacity:1;filter:url(#filter1722)"
       d="m 84.666668,5.0270834 c 0,0 -9.260416,7.1437496 -9.260416,15.6104176 0,0.14036 0.0055,0.278222 0.0155,0.413928 a 9.2604174,9.2604174 0 0 0 9.244913,8.846489 9.2604174,9.2604174 0 0 0 9.244914,-8.846489 c 0.01001,-0.135706 0.0155,-0.273568 0.0155,-0.413928 a 9.2604174,9.2604174 0 0 0 -0.0047,-0.28112 c -0.07408,-3.077374 -1.353135,-5.969669 -2.93775,-8.395355 L 82.380503,22.754167 80.348586,21.320146 89.471543,9.875365 C 87.099837,6.9049332 84.666668,5.0270834 84.666668,5.0270834 Z" />
    <path
       id="path321-6"
       style="fill:url(#linearGradient1116);fill-opacity:1;fill-rule:evenodd;stroke:#e5e5e5;stroke-width:1.05833;stroke-miterlimit:4;stroke-dasharray:none;stroke-opacity:1;filter:url(#filter1710)"
       d="m 54.205477,3.5119291 c -0.129643,0.00116 -0.204122,0.010335 -0.204122,0.010335 v 3.7041667 l 0.03462,0.037724 a 9.2604174,9.2604174 0 0 0 -0.828373,-0.037724 9.2604174,9.2604174 0 0 0 -8.09718,4.7764532 c -0.747868,1.173126 -1.221235,2.26824 -1.692403,2.896465 -0.79375,1.058333 -2.116667,3.439583 -3.439584,4.497916 -1.322917,1.058334 -2.116667,1.5875 -2.116667,1.5875 v 3.155363 a 0.79375007,0.79375007 0 0 1 0.786002,0.793234 0.79375007,0.79375007 0 0 1 -0.785999,0.791683 v 2.668054 c 0,0 1.058334,-0.79375 1.587501,-0.529167 0.529166,0.264584 1.058333,1.322917 1.058333,1.322917 l 3.96875,-1.322917 1.058333,-1.322916 c 0,0 2.557906,-0.383695 4.91753,-0.617534 l -0.15503,0.08837 c 0.264585,1.322917 -2.116666,3.704167 -2.116666,3.704167 l 14.816667,-2.645834 c 0,0 -1.632326,-4.664224 -1.175123,-7.205245 a 9.2604174,9.2604174 0 0 0 0.645956,-3.378088 h 1.5875 c 0,0 -0.529167,-2.910417 -0.79375,-3.96875 -0.264583,-1.058334 -1.322917,-3.1750012 -2.38125,-4.2333345 -1.058334,-1.0583334 -2.38125,-0.5291667 -2.38125,-0.5291667 0,0 0.264584,-0.2645833 -1.058333,-2.3812501 C 56.366069,3.654559 54.767265,3.5068934 54.205477,3.5119321 Z" />
    <path
       id="path321-3"
       style="fill:#3c3c3c;fill-opacity:1;fill-rule:evenodd;stroke:none;stroke-width:1.05833;stroke-miterlimit:4;stroke-dasharray:none;stroke-opacity:1"
       d="m 47.616215,9.5916603 c -0.909928,0.7418077 -1.670504,1.6498707 -2.241207,2.6758077 -0.747868,1.173125 -1.221235,2.268239 -1.692403,2.896464 -0.79375,1.058333 -2.116667,3.439583 -3.439584,4.497917 -1.322917,1.058333 -2.116666,1.5875 -2.116666,1.5875 3.704167,-0.529167 6.35,-1.852084 7.9375,-2.910417 1.5875,-1.058333 4.497916,-5.556251 4.497916,-5.556251 L 47.651355,9.6076801 Z"
       sodipodi:nodetypes="ccsscsccc" />
    <path
       id="path321-7"
       style="fill:#3c3c3c;fill-opacity:1;fill-rule:evenodd;stroke:none;stroke-width:1.05833;stroke-miterlimit:4;stroke-dasharray:none;stroke-opacity:1"
       d="m 47.624999,22.754167 c -0.424199,0.0019 -0.783933,0.03307 -1.031979,0.08268 -1.322917,0.264583 -3.439583,1.058333 -6.614583,5.027084 0,0 -0.03626,0.132442 -0.04496,0.164848 0.326205,0.39777 0.574125,0.893485 0.574125,0.893485 l 3.968751,-1.322917 1.058333,-1.322916 c 0,0 2.445636,-0.365717 4.759399,-0.599964 -0.0091,0.432619 -0.05199,1.503897 -0.261483,1.92288 -0.264583,0.529167 -1.852083,2.116667 -1.852083,2.116667 0,0 3.704165,-0.529167 3.96875,-0.79375 0.263329,-0.263329 0.787742,-3.404592 0.792717,-3.434416 0.01402,-2.88e-4 0.02903,-7.89e-4 0.04289,-0.001 -0.0091,-0.092 -0.02259,-0.182009 -0.04186,-0.268718 -0.429947,-1.934765 -3.479826,-2.47233 -5.318021,-2.463932 z" />
    <circle
       style="fill:url(#linearGradient886);fill-opacity:1;fill-rule:evenodd;stroke:#e5e5e5;stroke-width:1.05833;stroke-miterlimit:4;stroke-dasharray:none;stroke-opacity:1;filter:url(#filter1698)"
       id="path321-75"
       cx="16.933334"
       cy="16.933334"
       r="9.260417" />
    <path
       id="path321-35"
       style="fill:url(#linearGradient2284);fill-opacity:1;fill-rule:evenodd;stroke:#e5e5e5;stroke-width:1.05833;stroke-miterlimit:4;stroke-dasharray:none;stroke-opacity:1;filter:url(#filter1686)"
       d="m 109.27292,7.9375003 v 3.1750007 3.968751 5.027083 a 9.2604172,9.2604172 0 0 0 9.26041,9.260417 9.2604172,9.2604172 0 0 0 9.26042,-9.260417 V 15.081252 11.112501 7.9375003 h -4.7625 v 3.1750007 h -2.11667 V 7.9375003 h -4.7625 v 3.1750007 h -2.11666 V 7.9375003 Z" />
    <path
       id="path321-9"
       style="fill:url(#linearGradient2740);fill-opacity:1;fill-rule:evenodd;stroke:#e5e5e5;stroke-width:1.05833;stroke-miterlimit:4;stroke-dasharray:none;stroke-opacity:1;filter:url(#filter1674)"
       d="m 148.43125,6.8791668 -1.05833,6.3500012 -5.55625,-3.7041676 c 0,0 1.32292,6.8791676 1.32292,11.1125016 0,5.114387 4.14603,9.260417 9.26041,9.260417 5.11439,0 9.26042,-4.14603 9.26042,-9.260417 0,-4.233333 1.32292,-11.1125016 1.32292,-11.1125016 L 157.42709,13.229168 156.36875,6.8791668 152.4,12.170834 Z"
       sodipodi:nodetypes="cccsssccccc" />
    <path
       id="path321-1"
       style="fill:url(#linearGradient2940);fill-opacity:1;fill-rule:evenodd;stroke:#e5e5e5;stroke-width:1.05833;stroke-miterlimit:4;stroke-dasharray:none;stroke-opacity:1;filter:url(#filter1662)"
       d="m 184.15,5.2916668 v 2.1166667 h -3.175 v 4.2333335 h 3.10937 a 9.2604172,9.2604172 0 0 0 -7.07812,8.995834 9.2604172,9.2604172 0 0 0 9.26041,9.260417 9.2604172,9.2604172 0 0 0 9.26042,-9.260417 9.2604172,9.2604172 0 0 0 -7.0652,-8.995834 h 3.09645 V 7.4083335 h -3.175 V 5.2916668 Z" />
    <circle
       style="fill:#000000;stroke:#e5e5e5;stroke-width:1.05833;stroke-miterlimit:4;stroke-dasharray:none;stroke-opacity:1;filter:url(#filter1650)"
       id="path1330"
       cx="180.18124"
       cy="13.758334"
       r="1.3229167" />
    <circle
       style="fill:#000000;stroke:#e5e5e5;stroke-width:1.05833;stroke-miterlimit:4;stroke-dasharray:none;stroke-opacity:1;filter:url(#filter1638)"
       id="path1330-6"
       cx="192.3895"
       cy="13.745765"
       r="1.3229167" />
    <path
       id="path321-2"
       style="fill:url(#linearGradient8114);fill-opacity:1;fill-rule:evenodd;stroke:#1a1a1a;stroke-width:1.32291668;stroke-miterlimit:4;stroke-dasharray:none;stroke-opacity:1;filter:url(#filter1626)"
       d="m 84.666668,38.89375 c 0,0 -9.260416,7.14375 -9.260416,15.610418 0,0.14036 0.0055,0.278222 0.0155,0.413928 a 9.2604174,9.2604174 0 0 0 9.244913,8.846489 9.2604174,9.2604174 0 0 0 9.244914,-8.846489 c 0.01001,-0.135706 0.0155,-0.273568 0.0155,-0.413928 a 9.2604174,9.2604174 0 0 0 -0.0047,-0.28112 c -0.07408,-3.077374 -1.353135,-5.969669 -2.93775,-8.395355 L 82.380503,56.620834 80.348586,55.186813 89.471543,43.742032 C 87.099837,40.7716 84.666668,38.89375 84.666668,38.89375 Z" />
    <path
       id="path321-35-0"
       style="fill:url(#linearGradient8411);fill-opacity:1;fill-rule:evenodd;stroke:#1a1a1a;stroke-width:1.32292;stroke-miterlimit:4;stroke-dasharray:none;stroke-opacity:1;filter:url(#filter1614)"
       d="m 109.41366,41.804166 v 3.175001 3.968751 5.027083 a 9.2604172,9.2604172 0 0 0 9.26041,9.260417 9.2604172,9.2604172 0 0 0 9.26042,-9.260417 v -5.027083 -3.968751 -3.175001 h -4.7625 v 3.175001 h -2.11667 v -3.175001 h -4.7625 v 3.175001 h -2.11666 v -3.175001 z" />
    <path
       id="path321-9-6"
       style="fill:url(#linearGradient9361);fill-opacity:1;fill-rule:evenodd;stroke:#1a1a1a;stroke-width:1.32292;stroke-miterlimit:4;stroke-dasharray:none;stroke-opacity:1;filter:url(#filter1602)"
       d="m 148.57199,40.745833 -1.05833,6.350001 -5.55625,-3.704168 c 0,0 1.32292,6.879168 1.32292,11.112502 0,5.114387 4.14603,9.260417 9.26041,9.260417 5.11439,0 9.26042,-4.14603 9.26042,-9.260417 0,-4.233333 1.32292,-11.112502 1.32292,-11.112502 l -5.55625,3.704168 -1.05834,-6.350001 -3.96875,5.291667 z"
       sodipodi:nodetypes="cccsssccccc" />
    <path
       id="path321-1-6"
       style="fill:url(#linearGradient9719);fill-opacity:1;fill-rule:evenodd;stroke:#1a1a1a;stroke-width:1.32292;stroke-miterlimit:4;stroke-dasharray:none;stroke-opacity:1;filter:url(#filter1590)"
       d="M 184.15001,39.158333 V 41.275 h -3.175 v 4.233334 h 3.10937 a 9.2604172,9.2604172 0 0 0 -7.07812,8.995834 9.2604172,9.2604172 0 0 0 9.26041,9.260417 9.2604172,9.2604172 0 0 0 9.26042,-9.260417 9.2604172,9.2604172 0 0 0 -7.0652,-8.995834 h 3.09645 V 41.275 h -3.175 v -2.116667 z" />
    <circle
       style="fill:#ffffff;fill-opacity:1;stroke:#1a1a1a;stroke-width:1.32292;stroke-miterlimit:4;stroke-dasharray:none;stroke-opacity:1;filter:url(#filter1578)"
       id="path1330-1"
       cx="180.18126"
       cy="47.625"
       r="1.3229167" />
    <circle
       style="fill:#ffffff;fill-opacity:1;stroke:#1a1a1a;stroke-width:1.32292;stroke-miterlimit:4;stroke-dasharray:none;stroke-opacity:1;filter:url(#filter1566)"
       id="path1330-6-8"
       cx="192.38951"
       cy="47.612431"
       r="1.3229167" />
    <circle
       style="fill:url(#linearGradient5700);fill-opacity:1;fill-rule:evenodd;stroke:#1a1a1a;stroke-width:1.32291668;stroke-miterlimit:4;stroke-dasharray:none;stroke-opacity:1;opacity:1;filter:url(#filter1554)"
       id="path321-75-7"
       cx="16.933334"
       cy="50.800003"
       r="9.260417" />
    <path
       id="path321-6-2"
       style="fill:url(#linearGradient7740);fill-opacity:1;fill-rule:evenodd;stroke:#1a1a1a;stroke-width:1.32291668;stroke-miterlimit:4;stroke-dasharray:none;stroke-opacity:1;filter:url(#filter1542)"
       d="m 54.205477,37.378597 c -0.129643,0.0012 -0.204122,0.01033 -0.204122,0.01033 v 3.704167 l 0.03462,0.03772 a 9.2604174,9.2604174 0 0 0 -0.828373,-0.03772 9.2604174,9.2604174 0 0 0 -8.09718,4.776453 c -0.747868,1.173126 -1.221235,2.26824 -1.692403,2.896465 -0.79375,1.058333 -2.116667,3.439583 -3.439584,4.497916 -1.322917,1.058334 -2.116667,1.5875 -2.116667,1.5875 v 3.155363 a 0.79375007,0.79375007 0 0 1 0.786002,0.793234 0.79375007,0.79375007 0 0 1 -0.785999,0.791683 v 2.668054 c 0,0 1.058334,-0.79375 1.587501,-0.529167 0.529166,0.264584 1.058333,1.322917 1.058333,1.322917 l 3.96875,-1.322917 1.058333,-1.322916 c 0,0 2.557906,-0.383695 4.91753,-0.617534 l -0.15503,0.08837 c 0.264585,1.322917 -2.116666,3.704167 -2.116666,3.704167 l 14.816667,-2.645834 c 0,0 -1.632326,-4.664224 -1.175123,-7.205245 a 9.2604174,9.2604174 0 0 0 0.645956,-3.378088 h 1.5875 c 0,0 -0.529167,-2.910417 -0.79375,-3.96875 -0.264583,-1.058334 -1.322917,-3.175001 -2.38125,-4.233334 -1.058334,-1.058334 -2.38125,-0.529167 -2.38125,-0.529167 0,0 0.264584,-0.264583 -1.058333,-2.38125 -1.07487,-1.719792 -2.673674,-1.867458 -3.235462,-1.862419 z" />
    <path
       id="path321-3-0"
       style="fill:#b8b8b8;fill-opacity:1;fill-rule:evenodd;stroke:none;stroke-width:1.32291668;stroke-miterlimit:4;stroke-dasharray:none;stroke-opacity:1"
       d="m 47.616215,43.458328 c -0.909928,0.741808 -1.670504,1.649871 -2.241207,2.675808 -0.747868,1.173125 -1.221235,2.268239 -1.692403,2.896464 -0.79375,1.058333 -2.116667,3.439583 -3.439584,4.497917 -1.322917,1.058333 -2.116666,1.5875 -2.116666,1.5875 3.704167,-0.529167 6.35,-1.852084 7.9375,-2.910417 1.5875,-1.058333 4.497916,-5.556251 4.497916,-5.556251 l -2.910416,-3.175001 z"
       sodipodi:nodetypes="ccsscsccc" />
    <path
       id="path321-7-2"
       style="fill:#b8b8b8;fill-opacity:1;fill-rule:evenodd;stroke:none;stroke-width:1.32291668;stroke-miterlimit:4;stroke-dasharray:none;stroke-opacity:1"
       d="m 47.624999,56.620835 c -0.424199,0.0019 -0.783933,0.03307 -1.031979,0.08268 -1.322917,0.264583 -3.439583,1.058333 -6.614583,5.027084 0,0 -0.03626,0.132442 -0.04496,0.164848 0.326205,0.39777 0.574125,0.893485 0.574125,0.893485 l 3.968751,-1.322917 1.058333,-1.322916 c 0,0 2.445636,-0.365717 4.759399,-0.599964 -0.0091,0.432619 -0.05199,1.503897 -0.261483,1.92288 -0.264583,0.529167 -1.852083,2.116667 -1.852083,2.116667 0,0 3.704165,-0.529167 3.96875,-0.79375 0.263329,-0.263329 0.787742,-3.404592 0.792717,-3.434416 0.01402,-2.88e-4 0.02903,-7.89e-4 0.04289,-10e-4 -0.0091,-0.092 -0.02259,-0.182009 -0.04186,-0.268718 -0.429947,-1.934765 -3.479826,-2.47233 -5.318021,-2.463932 z" />
  </g>
</svg>
