<?xml version="1.0" encoding="UTF-8" standalone="no"?>
<!-- Created with Inkscape (http://www.inkscape.org/) -->

<svg
   width="768"
   height="256"
   viewBox="0 0 203.2 67.733335"
   version="1.1"
   id="svg5"
   sodipodi:docname="pieces.svg"
   inkscape:version="1.1.2 (0a00cf5339, 2022-02-04)"
   xmlns:inkscape="http://www.inkscape.org/namespaces/inkscape"
   xmlns:sodipodi="http://sodipodi.sourceforge.net/DTD/sodipodi-0.dtd"
   xmlns:xlink="http://www.w3.org/1999/xlink"
   xmlns="http://www.w3.org/2000/svg"
   xmlns:svg="http://www.w3.org/2000/svg">
  <sodipodi:namedview
     id="namedview7"
     pagecolor="#397d23"
     bordercolor="#666666"
     borderopacity="1.0"
     inkscape:pageshadow="2"
     inkscape:pageopacity="0"
     inkscape:pagecheckerboard="0"
     inkscape:document-units="px"
     showgrid="true"
     units="px"
     width="768px"
     inkscape:zoom="1.0998546"
     inkscape:cx="309.58637"
     inkscape:cy="84.102025"
     inkscape:window-width="2560"
     inkscape:window-height="1403"
     inkscape:window-x="0"
     inkscape:window-y="0"
     inkscape:window-maximized="1"
     inkscape:current-layer="layer1"
     showguides="true"
     inkscape:guide-bbox="true"
     objecttolerance="10000">
    <inkscape:grid
       type="xygrid"
       id="grid862"
       empspacing="16" />
    <sodipodi:guide
       position="0,67.733335"
       orientation="1,0"
       id="guide869" />
    <sodipodi:guide
       position="33.866667,67.733335"
       orientation="1,0"
       id="guide871" />
    <sodipodi:guide
       position="67.733333,67.733335"
       orientation="1,0"
       id="guide873" />
    <sodipodi:guide
       position="101.6,67.733335"
       orientation="1,0"
       id="guide875" />
    <sodipodi:guide
       position="135.46667,67.733335"
       orientation="1,0"
       id="guide877" />
    <sodipodi:guide
       position="169.33333,67.733335"
       orientation="1,0"
       id="guide879" />
    <sodipodi:guide
       position="203.2,33.866667"
       orientation="1,0"
       id="guide881" />
    <sodipodi:guide
       position="33.866667,67.733335"
       orientation="0,-1"
       id="guide883" />
    <sodipodi:guide
       position="33.866667,33.866667"
       orientation="0,-1"
       id="guide885" />
    <sodipodi:guide
       position="33.866667,-9.6254858e-13"
       orientation="0,-1"
       id="guide887" />
  </sodipodi:namedview>
  <defs
     id="defs2">
    <linearGradient
       inkscape:collect="always"
       id="linearGradient2938">
      <stop
         style="stop-color:#000000;stop-opacity:1"
         offset="0"
         id="stop2934" />
      <stop
         style="stop-color:#353535;stop-opacity:1"
         offset="1"
         id="stop2936" />
    </linearGradient>
    <linearGradient
       inkscape:collect="always"
       id="linearGradient2738">
      <stop
         style="stop-color:#000c00;stop-opacity:1;"
         offset="0"
         id="stop2734" />
      <stop
         style="stop-color:#393939;stop-opacity:1"
         offset="1"
         id="stop2736" />
    </linearGradient>
    <linearGradient
       inkscape:collect="always"
       id="linearGradient2282">
      <stop
         style="stop-color:#000c00;stop-opacity:1;"
         offset="0"
         id="stop2278" />
      <stop
         style="stop-color:#3b3b3b;stop-opacity:1"
         offset="1"
         id="stop2280" />
    </linearGradient>
    <linearGradient
       inkscape:collect="always"
       id="linearGradient1506">
      <stop
         style="stop-color:#000000;stop-opacity:1"
         offset="0"
         id="stop1502" />
      <stop
         style="stop-color:#393939;stop-opacity:1"
         offset="1"
         id="stop1504" />
    </linearGradient>
    <linearGradient
       inkscape:collect="always"
       id="linearGradient1114">
      <stop
         style="stop-color:#000000;stop-opacity:1;"
         offset="0"
         id="stop1110" />
      <stop
         style="stop-color:#3a3a3a;stop-opacity:1"
         offset="1"
         id="stop1112" />
    </linearGradient>
    <linearGradient
       inkscape:collect="always"
       id="linearGradient884">
      <stop
         style="stop-color:#000c00;stop-opacity:1;"
         offset="0"
         id="stop880" />
      <stop
         style="stop-color:#424242;stop-opacity:1"
         offset="1"
         id="stop882" />
    </linearGradient>
    <linearGradient
       inkscape:collect="always"
       id="linearGradient9717">
      <stop
         style="stop-color:#ffffff;stop-opacity:1;"
         offset="0"
         id="stop9713" />
      <stop
         style="stop-color:#696969;stop-opacity:1"
         offset="1"
         id="stop9715" />
    </linearGradient>
    <linearGradient
       inkscape:collect="always"
       id="linearGradient9359">
      <stop
         style="stop-color:#ffffff;stop-opacity:1;"
         offset="0"
         id="stop9355" />
      <stop
         style="stop-color:#7a7a7a;stop-opacity:1"
         offset="1"
         id="stop9357" />
    </linearGradient>
    <linearGradient
       inkscape:collect="always"
       id="linearGradient8409">
      <stop
         style="stop-color:#ffffff;stop-opacity:1;"
         offset="0"
         id="stop8405" />
      <stop
         style="stop-color:#a5a5a5;stop-opacity:1"
         offset="1"
         id="stop8407" />
    </linearGradient>
    <linearGradient
       inkscape:collect="always"
       id="linearGradient8112">
      <stop
         style="stop-color:#ffffff;stop-opacity:1;"
         offset="0"
         id="stop8108" />
      <stop
         style="stop-color:#979797;stop-opacity:1"
         offset="1"
         id="stop8110" />
    </linearGradient>
    <linearGradient
       inkscape:collect="always"
       id="linearGradient7738">
      <stop
         style="stop-color:#ffffff;stop-opacity:1;"
         offset="0"
         id="stop7734" />
      <stop
         style="stop-color:#909090;stop-opacity:1"
         offset="1"
         id="stop7736" />
    </linearGradient>
    <linearGradient
       inkscape:collect="always"
       id="linearGradient5698">
      <stop
         style="stop-color:#ffffff;stop-opacity:1"
         offset="0"
         id="stop5702" />
      <stop
         style="stop-color:#b2b2b2;stop-opacity:1"
         offset="1"
         id="stop5704" />
    </linearGradient>
    <linearGradient
       id="linearGradient5292"
       inkscape:swatch="solid">
      <stop
         style="stop-color:#ffffff;stop-opacity:1;"
         offset="0"
         id="stop5290" />
    </linearGradient>
    <linearGradient
       inkscape:collect="always"
       xlink:href="#linearGradient5698"
       id="linearGradient5700"
       x1="16.933334"
       y1="50.799999"
       x2="16.933334"
       y2="42.333332"
       gradientUnits="userSpaceOnUse" />
    <linearGradient
       inkscape:collect="always"
       xlink:href="#linearGradient7738"
       id="linearGradient7740"
       x1="50.799999"
       y1="50.799999"
       x2="50.799999"
       y2="38.100002"
       gradientUnits="userSpaceOnUse" />
    <linearGradient
       inkscape:collect="always"
       xlink:href="#linearGradient8112"
       id="linearGradient8114"
       x1="84.666664"
       y1="50.799999"
       x2="84.666672"
       y2="38.893749"
       gradientUnits="userSpaceOnUse" />
    <linearGradient
       inkscape:collect="always"
       xlink:href="#linearGradient8409"
       id="linearGradient8411"
       x1="118.53333"
       y1="55.033333"
       x2="118.53333"
       y2="42.333332"
       gradientUnits="userSpaceOnUse" />
    <linearGradient
       inkscape:collect="always"
       xlink:href="#linearGradient9359"
       id="linearGradient9361"
       x1="152.40001"
       y1="55.033333"
       x2="152.40001"
       y2="42.333332"
       gradientUnits="userSpaceOnUse" />
    <linearGradient
       inkscape:collect="always"
       xlink:href="#linearGradient9717"
       id="linearGradient9719"
       x1="186.26666"
       y1="50.799999"
       x2="186.26666"
       y2="38.100002"
       gradientUnits="userSpaceOnUse" />
    <linearGradient
       inkscape:collect="always"
       xlink:href="#linearGradient884"
       id="linearGradient886"
       x1="16.933334"
       y1="16.933334"
       x2="16.933334"
       y2="25.4"
       gradientUnits="userSpaceOnUse" />
    <linearGradient
       inkscape:collect="always"
       xlink:href="#linearGradient1114"
       id="linearGradient1116"
       x1="17.171562"
       y1="16.850653"
       x2="17.171562"
       y2="29.550653"
       gradientUnits="userSpaceOnUse" />
    <linearGradient
       inkscape:collect="always"
       xlink:href="#linearGradient1506"
       id="linearGradient1508"
       x1="84.666664"
       y1="16.933334"
       x2="84.666664"
       y2="29.633333"
       gradientUnits="userSpaceOnUse" />
    <linearGradient
       inkscape:collect="always"
       xlink:href="#linearGradient2282"
       id="linearGradient2284"
       x1="118.53333"
       y1="16.933334"
       x2="118.53333"
       y2="29.897919"
       gradientUnits="userSpaceOnUse" />
    <linearGradient
       inkscape:collect="always"
       xlink:href="#linearGradient2738"
       id="linearGradient2740"
       x1="152.40001"
       y1="16.933334"
       x2="152.40001"
       y2="29.633333"
       gradientUnits="userSpaceOnUse" />
    <linearGradient
       inkscape:collect="always"
       xlink:href="#linearGradient2938"
       id="linearGradient2940"
       x1="16.933338"
       y1="15.875"
       x2="16.933338"
       y2="28.575001"
       gradientUnits="userSpaceOnUse" />
  </defs>
  <g
     inkscape:label="Layer 1"
     inkscape:groupmode="layer"
     id="layer1">
    <path
       id="path321"
       style="fill:url(#linearGradient1508);fill-opacity:1;fill-rule:evenodd;stroke:#ffffff;stroke-width:1.05833;stroke-miterlimit:4;stroke-dasharray:none;stroke-opacity:1"
       d="m 84.666668,5.0270834 c 0,0 -9.260416,7.1437496 -9.260416,15.6104176 0,0.14036 0.0055,0.278222 0.0155,0.413928 a 9.2604174,9.2604174 0 0 0 9.244913,8.846489 9.2604174,9.2604174 0 0 0 9.244914,-8.846489 c 0.01001,-0.135706 0.0155,-0.273568 0.0155,-0.413928 a 9.2604174,9.2604174 0 0 0 -0.0047,-0.28112 c -0.07408,-3.077374 -1.353135,-5.969669 -2.93775,-8.395355 L 82.380503,22.754167 80.348586,21.320146 89.471543,9.875365 C 87.099837,6.9049332 84.666668,5.0270834 84.666668,5.0270834 Z" />
    <g
       id="g853"
       transform="translate(33.628438,0.08268086)">
      <path
         id="path321-6"
         style="fill:url(#linearGradient1116);fill-opacity:1;fill-rule:evenodd;stroke:#ffffff;stroke-width:1.05833;stroke-miterlimit:4;stroke-dasharray:none;stroke-opacity:1"
         d="m 20.577039,3.4292482 c -0.129643,0.00116 -0.204122,0.010335 -0.204122,0.010335 v 3.7041667 l 0.03462,0.037724 a 9.2604174,9.2604174 0 0 0 -0.828373,-0.037724 9.2604174,9.2604174 0 0 0 -8.09718,4.7764531 c -0.747868,1.173126 -1.221235,2.26824 -1.6924034,2.896465 -0.79375,1.058333 -2.1166667,3.439583 -3.4395834,4.497916 -1.3229167,1.058334 -2.1166668,1.5875 -2.1166668,1.5875 v 3.155363 a 0.79375007,0.79375007 0 0 1 0.7860016,0.793234 0.79375007,0.79375007 0 0 1 -0.7859986,0.791683 v 2.668054 c 0,0 1.0583334,-0.79375 1.5875001,-0.529167 0.5291667,0.264584 1.0583333,1.322917 1.0583333,1.322917 l 3.9687502,-1.322917 1.058333,-1.322916 c 0,0 2.557906,-0.383695 4.91753,-0.617534 l -0.15503,0.08837 c 0.264585,1.322917 -2.116666,3.704167 -2.116666,3.704167 l 14.816667,-2.645834 c 0,0 -1.632326,-4.664224 -1.175123,-7.205245 a 9.2604174,9.2604174 0 0 0 0.645956,-3.378088 h 1.5875 c 0,0 -0.529167,-2.910417 -0.79375,-3.96875 -0.264583,-1.058334 -1.322917,-3.1750011 -2.38125,-4.2333344 -1.058334,-1.0583334 -2.38125,-0.5291667 -2.38125,-0.5291667 0,0 0.264584,-0.2645833 -1.058333,-2.3812501 -1.07487,-1.7197917 -2.673674,-1.8674573 -3.235462,-1.8624186 z" />
      <path
         id="path321-3"
         style="fill:#3c3c3c;fill-opacity:1;fill-rule:evenodd;stroke:none;stroke-width:1.05833;stroke-miterlimit:4;stroke-dasharray:none;stroke-opacity:1"
         d="m 13.987777,9.5089794 c -0.909928,0.7418076 -1.670504,1.6498706 -2.241207,2.6758076 -0.747868,1.173125 -1.221235,2.268239 -1.692403,2.896464 -0.7937501,1.058333 -2.1166666,3.439583 -3.4395835,4.497917 -1.322917,1.058333 -2.1166668,1.5875 -2.1166668,1.5875 C 8.2020838,20.637501 10.847917,19.314584 12.435417,18.256251 14.022917,17.197918 16.933333,12.7 16.933333,12.7 L 14.022917,9.5249992 Z"
         sodipodi:nodetypes="ccsscsccc" />
      <path
         id="path321-7"
         style="fill:#3c3c3c;fill-opacity:1;fill-rule:evenodd;stroke:none;stroke-width:1.05833;stroke-miterlimit:4;stroke-dasharray:none;stroke-opacity:1"
         d="m 13.996561,22.671486 c -0.424199,0.0019 -0.783933,0.03307 -1.031979,0.08268 -1.322917,0.264583 -3.4395829,1.058333 -6.6145831,5.027084 0,0 -0.036261,0.132442 -0.044958,0.164848 0.3262053,0.39777 0.5741252,0.893485 0.5741252,0.893485 L 10.847917,27.516666 11.90625,26.19375 c 0,0 2.445636,-0.365717 4.759399,-0.599964 -0.0091,0.432619 -0.05199,1.503897 -0.261483,1.92288 -0.264583,0.529167 -1.852083,2.116667 -1.852083,2.116667 0,0 3.704165,-0.529167 3.96875,-0.79375 0.263329,-0.263329 0.787742,-3.404592 0.792717,-3.434416 0.01402,-2.88e-4 0.02903,-7.89e-4 0.04289,-10e-4 -0.0091,-0.092 -0.02259,-0.182009 -0.04186,-0.268718 -0.429947,-1.934765 -3.479826,-2.47233 -5.318021,-2.463932 z" />
    </g>
    <circle
       style="fill:url(#linearGradient886);fill-opacity:1;fill-rule:evenodd;stroke:#ffffff;stroke-width:1.05833;stroke-miterlimit:4;stroke-dasharray:none;stroke-opacity:1"
       id="path321-75"
       cx="16.933334"
       cy="16.933334"
       r="9.260417" />
    <path
       id="path321-35"
       style="fill:url(#linearGradient2284);fill-opacity:1;fill-rule:evenodd;stroke:#ffffff;stroke-width:1.05833;stroke-miterlimit:4;stroke-dasharray:none;stroke-opacity:1"
       d="m 109.27292,8.466667 v 3.175001 3.968751 5.027083 a 9.2604172,9.2604172 0 0 0 9.26041,9.260417 9.2604172,9.2604172 0 0 0 9.26042,-9.260417 V 15.610419 11.641668 8.466667 h -4.7625 v 3.175001 h -2.11667 V 8.466667 h -4.7625 v 3.175001 h -2.11666 V 8.466667 Z" />
    <path
       id="path321-9"
       style="fill:url(#linearGradient2740);fill-opacity:1;fill-rule:evenodd;stroke:#ffffff;stroke-width:1.05833;stroke-miterlimit:4;stroke-dasharray:none;stroke-opacity:1"
       d="m 148.43125,6.8791668 -1.05833,6.3500012 -5.55625,-3.7041676 c 0,0 1.32292,6.8791676 1.32292,11.1125016 0,5.114387 4.14603,9.260417 9.26041,9.260417 5.11439,0 9.26042,-4.14603 9.26042,-9.260417 0,-4.233333 1.32292,-11.1125016 1.32292,-11.1125016 L 157.42709,13.229168 156.36875,6.8791668 152.4,12.170834 Z"
       sodipodi:nodetypes="cccsssccccc" />
    <g
       id="g834"
       transform="translate(169.33333,1.0583333)">
      <path
         id="path321-1"
         style="fill:url(#linearGradient2940);fill-opacity:1;fill-rule:evenodd;stroke:#ffffff;stroke-width:1.05833;stroke-miterlimit:4;stroke-dasharray:none;stroke-opacity:1"
         d="m 14.816667,4.7625002 v 2.1166667 h -3.175 v 4.2333341 h 3.109371 a 9.2604172,9.2604172 0 0 0 -7.0781211,8.995834 9.2604172,9.2604172 0 0 0 9.2604171,9.260417 9.2604172,9.2604172 0 0 0 9.260417,-9.260417 9.2604172,9.2604172 0 0 0 -7.065202,-8.995834 h 3.096452 V 6.8791669 H 19.05 V 4.7625002 Z" />
      <circle
         style="fill:#000000;stroke:#ffffff;stroke-width:1.05833;stroke-miterlimit:4;stroke-dasharray:none;stroke-opacity:1"
         id="path1330"
         cx="10.847917"
         cy="13.229167"
         r="1.3229167" />
      <circle
         style="fill:#000000;stroke:#ffffff;stroke-width:1.05833;stroke-miterlimit:4;stroke-dasharray:none;stroke-opacity:1"
         id="path1330-6"
         cx="23.056164"
         cy="13.216598"
         r="1.3229167" />
    </g>
    <path
       id="path321-2"
       style="fill:url(#linearGradient8114);fill-opacity:1;fill-rule:evenodd;stroke:#000000;stroke-width:1.32291668;stroke-miterlimit:4;stroke-dasharray:none;stroke-opacity:1"
       d="m 84.666668,38.89375 c 0,0 -9.260416,7.14375 -9.260416,15.610418 0,0.14036 0.0055,0.278222 0.0155,0.413928 a 9.2604174,9.2604174 0 0 0 9.244913,8.846489 9.2604174,9.2604174 0 0 0 9.244914,-8.846489 c 0.01001,-0.135706 0.0155,-0.273568 0.0155,-0.413928 a 9.2604174,9.2604174 0 0 0 -0.0047,-0.28112 c -0.07408,-3.077374 -1.353135,-5.969669 -2.93775,-8.395355 L 82.380503,56.620834 80.348586,55.186813 89.471543,43.742032 C 87.099837,40.7716 84.666668,38.89375 84.666668,38.89375 Z" />
    <path
       id="path321-35-0"
       style="fill:url(#linearGradient8411);fill-opacity:1;fill-rule:evenodd;stroke:#000000;stroke-width:1.32291668;stroke-miterlimit:4;stroke-dasharray:none;stroke-opacity:1"
       d="m 109.41366,42.333333 v 3.175001 3.968751 5.027083 a 9.2604172,9.2604172 0 0 0 9.26041,9.260417 9.2604172,9.2604172 0 0 0 9.26042,-9.260417 v -5.027083 -3.968751 -3.175001 h -4.7625 v 3.175001 h -2.11667 v -3.175001 h -4.7625 v 3.175001 h -2.11666 v -3.175001 z" />
    <path
       id="path321-9-6"
       style="fill:url(#linearGradient9361);fill-opacity:1;fill-rule:evenodd;stroke:#1e1e1e;stroke-width:1.32291668;stroke-miterlimit:4;stroke-dasharray:none;stroke-opacity:1"
       d="m 148.57199,40.745833 -1.05833,6.350001 -5.55625,-3.704168 c 0,0 1.32292,6.879168 1.32292,11.112502 0,5.114387 4.14603,9.260417 9.26041,9.260417 5.11439,0 9.26042,-4.14603 9.26042,-9.260417 0,-4.233333 1.32292,-11.112502 1.32292,-11.112502 l -5.55625,3.704168 -1.05834,-6.350001 -3.96875,5.291667 z"
       sodipodi:nodetypes="cccsssccccc" />
    <path
       id="path321-1-6"
       style="fill:url(#linearGradient9719);fill-opacity:1;fill-rule:evenodd;stroke:#000000;stroke-width:1.32291668;stroke-miterlimit:4;stroke-dasharray:none;stroke-opacity:1"
       d="m 184.15001,39.6875 v 2.116667 h -3.175 v 4.233334 h 3.10937 a 9.2604172,9.2604172 0 0 0 -7.07812,8.995834 9.2604172,9.2604172 0 0 0 9.26041,9.260417 9.2604172,9.2604172 0 0 0 9.26042,-9.260417 9.2604172,9.2604172 0 0 0 -7.0652,-8.995834 h 3.09645 v -4.233334 h -3.175 V 39.6875 Z" />
    <circle
       style="fill:#ffffff;stroke:#000000;stroke-width:1.32291668;stroke-miterlimit:4;stroke-dasharray:none;stroke-opacity:1;fill-opacity:1"
       id="path1330-1"
       cx="180.18126"
       cy="48.154167"
       r="1.3229167" />
    <circle
       style="fill:#ffffff;stroke:#000000;stroke-width:1.32291668;stroke-miterlimit:4;stroke-dasharray:none;stroke-opacity:1;fill-opacity:1"
       id="path1330-6-8"
       cx="192.38951"
       cy="48.141598"
       r="1.3229167" />
    <circle
       style="fill:url(#linearGradient5700);fill-opacity:1;fill-rule:evenodd;stroke:#000000;stroke-width:1.32291668;stroke-miterlimit:4;stroke-dasharray:none;stroke-opacity:1;opacity:1"
       id="path321-75-7"
       cx="16.933334"
       cy="50.800003"
       r="9.260417" />
    <path
       id="path321-6-2"
       style="fill:url(#linearGradient7740);fill-opacity:1;fill-rule:evenodd;stroke:#000000;stroke-width:1.32291668;stroke-miterlimit:4;stroke-dasharray:none;stroke-opacity:1"
       d="m 54.205477,37.378597 c -0.129643,0.0012 -0.204122,0.01033 -0.204122,0.01033 v 3.704167 l 0.03462,0.03772 a 9.2604174,9.2604174 0 0 0 -0.828373,-0.03772 9.2604174,9.2604174 0 0 0 -8.09718,4.776453 c -0.747868,1.173126 -1.221235,2.26824 -1.692403,2.896465 -0.79375,1.058333 -2.116667,3.439583 -3.439584,4.497916 -1.322917,1.058334 -2.116667,1.5875 -2.116667,1.5875 v 3.155363 a 0.79375007,0.79375007 0 0 1 0.786002,0.793234 0.79375007,0.79375007 0 0 1 -0.785999,0.791683 v 2.668054 c 0,0 1.058334,-0.79375 1.587501,-0.529167 0.529166,0.264584 1.058333,1.322917 1.058333,1.322917 l 3.96875,-1.322917 1.058333,-1.322916 c 0,0 2.557906,-0.383695 4.91753,-0.617534 l -0.15503,0.08837 c 0.264585,1.322917 -2.116666,3.704167 -2.116666,3.704167 l 14.816667,-2.645834 c 0,0 -1.632326,-4.664224 -1.175123,-7.205245 a 9.2604174,9.2604174 0 0 0 0.645956,-3.378088 h 1.5875 c 0,0 -0.529167,-2.910417 -0.79375,-3.96875 -0.264583,-1.058334 -1.322917,-3.175001 -2.38125,-4.233334 -1.058334,-1.058334 -2.38125,-0.529167 -2.38125,-0.529167 0,0 0.264584,-0.264583 -1.058333,-2.38125 -1.07487,-1.719792 -2.673674,-1.867458 -3.235462,-1.862419 z" />
    <path
       id="path321-3-0"
       style="fill:#989898;fill-opacity:1;fill-rule:evenodd;stroke:none;stroke-width:1.32291668;stroke-miterlimit:4;stroke-dasharray:none;stroke-opacity:1"
       d="m 47.616215,43.458328 c -0.909928,0.741808 -1.670504,1.649871 -2.241207,2.675808 -0.747868,1.173125 -1.221235,2.268239 -1.692403,2.896464 -0.79375,1.058333 -2.116667,3.439583 -3.439584,4.497917 -1.322917,1.058333 -2.116666,1.5875 -2.116666,1.5875 3.704167,-0.529167 6.35,-1.852084 7.9375,-2.910417 1.5875,-1.058333 4.497916,-5.556251 4.497916,-5.556251 l -2.910416,-3.175001 z"
       sodipodi:nodetypes="ccsscsccc" />
    <path
       id="path321-7-2"
       style="fill:#989898;fill-opacity:1;fill-rule:evenodd;stroke:none;stroke-width:1.32291668;stroke-miterlimit:4;stroke-dasharray:none;stroke-opacity:1"
       d="m 47.624999,56.620835 c -0.424199,0.0019 -0.783933,0.03307 -1.031979,0.08268 -1.322917,0.264583 -3.439583,1.058333 -6.614583,5.027084 0,0 -0.03626,0.132442 -0.04496,0.164848 0.326205,0.39777 0.574125,0.893485 0.574125,0.893485 l 3.968751,-1.322917 1.058333,-1.322916 c 0,0 2.445636,-0.365717 4.759399,-0.599964 -0.0091,0.432619 -0.05199,1.503897 -0.261483,1.92288 -0.264583,0.529167 -1.852083,2.116667 -1.852083,2.116667 0,0 3.704165,-0.529167 3.96875,-0.79375 0.263329,-0.263329 0.787742,-3.404592 0.792717,-3.434416 0.01402,-2.88e-4 0.02903,-7.89e-4 0.04289,-10e-4 -0.0091,-0.092 -0.02259,-0.182009 -0.04186,-0.268718 -0.429947,-1.934765 -3.479826,-2.47233 -5.318021,-2.463932 z" />
  </g>
</svg>
