<?xml version="1.0" encoding="UTF-8" standalone="no"?>
<!-- Created with Inkscape (http://www.inkscape.org/) -->

<svg
   width="768"
   height="256"
   viewBox="0 0 203.2 67.733335"
   version="1.1"
   id="svg5"
   sodipodi:docname="pieces.svg"
   inkscape:version="1.1.2 (0a00cf5339, 2022-02-04)"
   xmlns:inkscape="http://www.inkscape.org/namespaces/inkscape"
   xmlns:sodipodi="http://sodipodi.sourceforge.net/DTD/sodipodi-0.dtd"
   xmlns="http://www.w3.org/2000/svg"
   xmlns:svg="http://www.w3.org/2000/svg">
  <sodipodi:namedview
     id="namedview7"
     pagecolor="#397d23"
     bordercolor="#666666"
     borderopacity="1.0"
     inkscape:pageshadow="2"
     inkscape:pageopacity="0"
     inkscape:pagecheckerboard="0"
     inkscape:document-units="px"
     showgrid="true"
     units="px"
     width="768px"
     inkscape:zoom="1.6719329"
     inkscape:cx="391.16402"
     inkscape:cy="175.54532"
     inkscape:window-width="1920"
     inkscape:window-height="1043"
     inkscape:window-x="0"
     inkscape:window-y="0"
     inkscape:window-maximized="1"
     inkscape:current-layer="layer1"
     showguides="true"
     inkscape:guide-bbox="true"
     objecttolerance="10">
    <inkscape:grid
       type="xygrid"
       id="grid862"
       empspacing="16"
       snapvisiblegridlinesonly="true" />
    <sodipodi:guide
       position="0,67.733335"
       orientation="1,0"
       id="guide869" />
    <sodipodi:guide
       position="33.866667,67.733335"
       orientation="1,0"
       id="guide871" />
    <sodipodi:guide
       position="67.733333,67.733335"
       orientation="1,0"
       id="guide873" />
    <sodipodi:guide
       position="101.6,67.733335"
       orientation="1,0"
       id="guide875" />
    <sodipodi:guide
       position="135.46667,67.733335"
       orientation="1,0"
       id="guide877" />
    <sodipodi:guide
       position="169.33333,67.733335"
       orientation="1,0"
       id="guide879" />
    <sodipodi:guide
       position="203.2,33.866667"
       orientation="1,0"
       id="guide881" />
    <sodipodi:guide
       position="33.866667,67.733335"
       orientation="0,-1"
       id="guide883" />
    <sodipodi:guide
       position="33.866667,33.866667"
       orientation="0,-1"
       id="guide885" />
    <sodipodi:guide
       position="33.866667,-9.6254858e-13"
       orientation="0,-1"
       id="guide887" />
  </sodipodi:namedview>
  <defs
     id="defs2">
    <linearGradient
       id="linearGradient5292"
       inkscape:swatch="solid">
      <stop
         style="stop-color:#ffffff;stop-opacity:1;"
         offset="0"
         id="stop5290" />
    </linearGradient>
    <filter
       style="color-interpolation-filters:sRGB;"
       inkscape:label="Drop Shadow"
       id="filter1542"
       x="-0.11687742"
       y="-0.11682986"
       width="1.2436705"
       height="1.269937">
      <feFlood
         flood-opacity="0.588235"
         flood-color="rgb(0,0,0)"
         result="flood"
         id="feFlood1532" />
      <feComposite
         in="flood"
         in2="SourceGraphic"
         operator="in"
         result="composite1"
         id="feComposite1534" />
      <feGaussianBlur
         in="composite1"
         stdDeviation="1"
         result="blur"
         id="feGaussianBlur1536" />
      <feOffset
         dx="0.12862"
         dy="0.590701"
         result="offset"
         id="feOffset1538" />
      <feComposite
         in="SourceGraphic"
         in2="offset"
         operator="over"
         result="composite2"
         id="feComposite1540" />
    </filter>
    <filter
       style="color-interpolation-filters:sRGB;"
       inkscape:label="Drop Shadow"
       id="filter1554"
       x="-0.16529808"
       y="-0.16529808"
       width="1.3375408"
       height="1.36249">
      <feFlood
         flood-opacity="0.588235"
         flood-color="rgb(0,0,0)"
         result="flood"
         id="feFlood1544" />
      <feComposite
         in="flood"
         in2="SourceGraphic"
         operator="in"
         result="composite1"
         id="feComposite1546" />
      <feGaussianBlur
         in="composite1"
         stdDeviation="1"
         result="blur"
         id="feGaussianBlur1548" />
      <feOffset
         dx="0.12862"
         dy="0.590701"
         result="offset"
         id="feOffset1550" />
      <feComposite
         in="SourceGraphic"
         in2="offset"
         operator="over"
         result="composite2"
         id="feComposite1552" />
    </filter>
    <filter
       style="color-interpolation-filters:sRGB;"
       inkscape:label="Drop Shadow"
       id="filter1566"
       x="-1.1570872"
       y="-1.1570872"
       width="3.3627866"
       height="3.5374314">
      <feFlood
         flood-opacity="0.588235"
         flood-color="rgb(0,0,0)"
         result="flood"
         id="feFlood1556" />
      <feComposite
         in="flood"
         in2="SourceGraphic"
         operator="in"
         result="composite1"
         id="feComposite1558" />
      <feGaussianBlur
         in="composite1"
         stdDeviation="1"
         result="blur"
         id="feGaussianBlur1560" />
      <feOffset
         dx="0.12862"
         dy="0.590701"
         result="offset"
         id="feOffset1562" />
      <feComposite
         in="SourceGraphic"
         in2="offset"
         operator="over"
         result="composite2"
         id="feComposite1564" />
    </filter>
    <filter
       style="color-interpolation-filters:sRGB;"
       inkscape:label="Drop Shadow"
       id="filter1578"
       x="-1.1570872"
       y="-1.1570872"
       width="3.3627866"
       height="3.5374314">
      <feFlood
         flood-opacity="0.588235"
         flood-color="rgb(0,0,0)"
         result="flood"
         id="feFlood1568" />
      <feComposite
         in="flood"
         in2="SourceGraphic"
         operator="in"
         result="composite1"
         id="feComposite1570" />
      <feGaussianBlur
         in="composite1"
         stdDeviation="1"
         result="blur"
         id="feGaussianBlur1572" />
      <feOffset
         dx="0.12862"
         dy="0.590701"
         result="offset"
         id="feOffset1574" />
      <feComposite
         in="SourceGraphic"
         in2="offset"
         operator="over"
         result="composite2"
         id="feComposite1576" />
    </filter>
    <filter
       style="color-interpolation-filters:sRGB;"
       inkscape:label="Drop Shadow"
       id="filter1590"
       x="-0.16529821"
       y="-0.12441797"
       width="1.337541"
       height="1.2728421">
      <feFlood
         flood-opacity="0.588235"
         flood-color="rgb(0,0,0)"
         result="flood"
         id="feFlood1580" />
      <feComposite
         in="flood"
         in2="SourceGraphic"
         operator="in"
         result="composite1"
         id="feComposite1582" />
      <feGaussianBlur
         in="composite1"
         stdDeviation="1"
         result="blur"
         id="feGaussianBlur1584" />
      <feOffset
         dx="0.12862"
         dy="0.590701"
         result="offset"
         id="feOffset1586" />
      <feComposite
         in="SourceGraphic"
         in2="offset"
         operator="over"
         result="composite2"
         id="feComposite1588" />
    </filter>
    <filter
       style="color-interpolation-filters:sRGB;"
       inkscape:label="Drop Shadow"
       id="filter1602"
       x="-0.15817316"
       y="-0.17522835"
       width="1.3224229"
       height="1.3338886">
      <feFlood
         flood-opacity="0.588235"
         flood-color="rgb(0,0,0)"
         result="flood"
         id="feFlood1592" />
      <feComposite
         in="flood"
         in2="SourceGraphic"
         operator="in"
         result="composite1"
         id="feComposite1594" />
      <feGaussianBlur
         in="composite1"
         stdDeviation="1"
         result="blur"
         id="feGaussianBlur1596" />
      <feOffset
         dx="0.12862"
         dy="0.590701"
         result="offset"
         id="feOffset1598" />
      <feComposite
         in="SourceGraphic"
         in2="offset"
         operator="over"
         result="composite2"
         id="feComposite1600" />
    </filter>
    <filter
       style="color-interpolation-filters:sRGB;"
       inkscape:label="Drop Shadow"
       id="filter1614"
       x="-0.16529821"
       y="-0.14285026"
       width="1.337541"
       height="1.3132631">
      <feFlood
         flood-opacity="0.588235"
         flood-color="rgb(0,0,0)"
         result="flood"
         id="feFlood1604" />
      <feComposite
         in="flood"
         in2="SourceGraphic"
         operator="in"
         result="composite1"
         id="feComposite1606" />
      <feGaussianBlur
         in="composite1"
         stdDeviation="1"
         result="blur"
         id="feGaussianBlur1608" />
      <feOffset
         dx="0.12862"
         dy="0.590701"
         result="offset"
         id="feOffset1610" />
      <feComposite
         in="SourceGraphic"
         in2="offset"
         operator="over"
         result="composite2"
         id="feComposite1612" />
    </filter>
    <filter
       style="color-interpolation-filters:sRGB;"
       inkscape:label="Drop Shadow"
       id="filter1626"
       x="-0.16529814"
       y="-0.13009107"
       width="1.3375409"
       height="1.2769361">
      <feFlood
         flood-opacity="0.588235"
         flood-color="rgb(0,0,0)"
         result="flood"
         id="feFlood1616" />
      <feComposite
         in="flood"
         in2="SourceGraphic"
         operator="in"
         result="composite1"
         id="feComposite1618" />
      <feGaussianBlur
         in="composite1"
         stdDeviation="1"
         result="blur"
         id="feGaussianBlur1620" />
      <feOffset
         dx="0.12862"
         dy="0.590701"
         result="offset"
         id="feOffset1622" />
      <feComposite
         in="SourceGraphic"
         in2="offset"
         operator="over"
         result="composite2"
         id="feComposite1624" />
    </filter>
    <filter
       style="color-interpolation-filters:sRGB;"
       inkscape:label="Drop Shadow"
       id="filter1638"
       x="-1.0064418"
       y="-1.1070859"
       width="3.0570767"
       height="3.4374289">
      <feFlood
         flood-opacity="0.588235"
         flood-color="rgb(0,0,0)"
         result="flood"
         id="feFlood1628" />
      <feComposite
         in="flood"
         in2="SourceGraphic"
         operator="in"
         result="composite1"
         id="feComposite1630" />
      <feGaussianBlur
         in="composite1"
         stdDeviation="1"
         result="blur"
         id="feGaussianBlur1632" />
      <feOffset
         dx="0.12862"
         dy="0.590701"
         result="offset"
         id="feOffset1634" />
      <feComposite
         in="SourceGraphic"
         in2="offset"
         operator="over"
         result="composite2"
         id="feComposite1636" />
    </filter>
    <filter
       style="color-interpolation-filters:sRGB;"
       inkscape:label="Drop Shadow"
       id="filter1650"
       x="-1.0064418"
       y="-1.1070859"
       width="3.0570767"
       height="3.4374289">
      <feFlood
         flood-opacity="0.588235"
         flood-color="rgb(0,0,0)"
         result="flood"
         id="feFlood1640" />
      <feComposite
         in="flood"
         in2="SourceGraphic"
         operator="in"
         result="composite1"
         id="feComposite1642" />
      <feGaussianBlur
         in="composite1"
         stdDeviation="1"
         result="blur"
         id="feGaussianBlur1644" />
      <feOffset
         dx="0.12862"
         dy="0.590701"
         result="offset"
         id="feOffset1646" />
      <feComposite
         in="SourceGraphic"
         in2="offset"
         operator="over"
         result="composite2"
         id="feComposite1648" />
    </filter>
    <filter
       style="color-interpolation-filters:sRGB;"
       inkscape:label="Drop Shadow"
       id="filter1662"
       x="-0.15815517"
       y="-0.1190415"
       width="1.323255"
       height="1.2620891">
      <feFlood
         flood-opacity="0.588235"
         flood-color="rgb(0,0,0)"
         result="flood"
         id="feFlood1652" />
      <feComposite
         in="flood"
         in2="SourceGraphic"
         operator="in"
         result="composite1"
         id="feComposite1654" />
      <feGaussianBlur
         in="composite1"
         stdDeviation="1"
         result="blur"
         id="feGaussianBlur1656" />
      <feOffset
         dx="0.12862"
         dy="0.590701"
         result="offset"
         id="feOffset1658" />
      <feComposite
         in="SourceGraphic"
         in2="offset"
         operator="over"
         result="composite2"
         id="feComposite1660" />
    </filter>
    <filter
       style="color-interpolation-filters:sRGB;"
       inkscape:label="Drop Shadow"
       id="filter1674"
       x="-0.14921549"
       y="-0.16103493"
       width="1.3045075"
       height="1.3139479">
      <feFlood
         flood-opacity="0.588235"
         flood-color="rgb(0,0,0)"
         result="flood"
         id="feFlood1664" />
      <feComposite
         in="flood"
         in2="SourceGraphic"
         operator="in"
         result="composite1"
         id="feComposite1666" />
      <feGaussianBlur
         in="composite1"
         stdDeviation="1"
         result="blur"
         id="feGaussianBlur1668" />
      <feOffset
         dx="0.12862"
         dy="0.590701"
         result="offset"
         id="feOffset1670" />
      <feComposite
         in="SourceGraphic"
         in2="offset"
         operator="over"
         result="composite2"
         id="feComposite1672" />
    </filter>
    <filter
       style="color-interpolation-filters:sRGB;"
       inkscape:label="Drop Shadow"
       id="filter1686"
       x="-0.15815517"
       y="-0.13667727"
       width="1.323255"
       height="1.3009171">
      <feFlood
         flood-opacity="0.588235"
         flood-color="rgb(0,0,0)"
         result="flood"
         id="feFlood1676" />
      <feComposite
         in="flood"
         in2="SourceGraphic"
         operator="in"
         result="composite1"
         id="feComposite1678" />
      <feGaussianBlur
         in="composite1"
         stdDeviation="1"
         result="blur"
         id="feGaussianBlur1680" />
      <feOffset
         dx="0.12862"
         dy="0.590701"
         result="offset"
         id="feOffset1682" />
      <feComposite
         in="SourceGraphic"
         in2="offset"
         operator="over"
         result="composite2"
         id="feComposite1684" />
    </filter>
    <filter
       style="color-interpolation-filters:sRGB;"
       inkscape:label="Drop Shadow"
       id="filter1698"
       x="-0.15815514"
       y="-0.15815514"
       width="1.3232549"
       height="1.3482041">
      <feFlood
         flood-opacity="0.588235"
         flood-color="rgb(0,0,0)"
         result="flood"
         id="feFlood1688" />
      <feComposite
         in="flood"
         in2="SourceGraphic"
         operator="in"
         result="composite1"
         id="feComposite1690" />
      <feGaussianBlur
         in="composite1"
         stdDeviation="1"
         result="blur"
         id="feGaussianBlur1692" />
      <feOffset
         dx="0.12862"
         dy="0.590701"
         result="offset"
         id="feOffset1694" />
      <feComposite
         in="SourceGraphic"
         in2="offset"
         operator="over"
         result="composite2"
         id="feComposite1696" />
    </filter>
    <filter
       style="color-interpolation-filters:sRGB;"
       inkscape:label="Drop Shadow"
       id="filter1710"
       x="-0.11182685"
       y="-0.11178147"
       width="1.2325683"
       height="1.2570932">
      <feFlood
         flood-opacity="0.588235"
         flood-color="rgb(0,0,0)"
         result="flood"
         id="feFlood1700" />
      <feComposite
         in="flood"
         in2="SourceGraphic"
         operator="in"
         result="composite1"
         id="feComposite1702" />
      <feGaussianBlur
         in="composite1"
         stdDeviation="1"
         result="blur"
         id="feGaussianBlur1704" />
      <feOffset
         dx="0.12862"
         dy="0.590701"
         result="offset"
         id="feOffset1706" />
      <feComposite
         in="SourceGraphic"
         in2="offset"
         operator="over"
         result="composite2"
         id="feComposite1708" />
    </filter>
    <filter
       style="color-interpolation-filters:sRGB;"
       inkscape:label="Drop Shadow"
       id="filter1722"
       x="-0.1581552"
       y="-0.12337249"
       width="1.323255"
       height="1.2648983">
      <feFlood
         flood-opacity="0.588235"
         flood-color="rgb(0,0,0)"
         result="flood"
         id="feFlood1712" />
      <feComposite
         in="flood"
         in2="SourceGraphic"
         operator="in"
         result="composite1"
         id="feComposite1714" />
      <feGaussianBlur
         in="composite1"
         stdDeviation="1"
         result="blur"
         id="feGaussianBlur1716" />
      <feOffset
         dx="0.12862"
         dy="0.590701"
         result="offset"
         id="feOffset1718" />
      <feComposite
         in="SourceGraphic"
         in2="offset"
         operator="over"
         result="composite2"
         id="feComposite1720" />
    </filter>
    <filter
       style="color-interpolation-filters:sRGB"
       inkscape:label="Drop Shadow"
       id="filter1698-7"
       x="-0.1295838"
       y="-0.1295838"
       width="1.2661122"
       height="1.2910615">
      <feFlood
         flood-opacity="0.588235"
         flood-color="rgb(0,0,0)"
         result="flood"
         id="feFlood1688-5" />
      <feComposite
         in="flood"
         in2="SourceGraphic"
         operator="in"
         result="composite1"
         id="feComposite1690-3" />
      <feGaussianBlur
         in="composite1"
         stdDeviation="1"
         result="blur"
         id="feGaussianBlur1692-5" />
      <feOffset
         dx="0.12862"
         dy="0.590701"
         result="offset"
         id="feOffset1694-6" />
      <feComposite
         in="SourceGraphic"
         in2="offset"
         operator="over"
         result="composite2"
         id="feComposite1696-2" />
    </filter>
    <filter
       style="color-interpolation-filters:sRGB;"
       inkscape:label="Drop Shadow"
       id="filter4622"
       x="-0.11974678"
       y="-0.13776195"
       width="1.2547825"
       height="1.2873944">
      <feFlood
         flood-opacity="0.65098"
         flood-color="rgb(0,0,0)"
         result="flood"
         id="feFlood4612" />
      <feComposite
         in="flood"
         in2="SourceGraphic"
         operator="in"
         result="composite1"
         id="feComposite4614" />
      <feGaussianBlur
         in="composite1"
         stdDeviation="4"
         result="blur"
         id="feGaussianBlur4616" />
      <feOffset
         dx="1"
         dy="1"
         result="offset"
         id="feOffset4618" />
      <feComposite
         in="SourceGraphic"
         in2="offset"
         operator="over"
         result="composite2"
         id="feComposite4620" />
    </filter>
    <filter
       style="color-interpolation-filters:sRGB"
       inkscape:label="Drop Shadow"
       id="filter4622-0"
       x="-0.11974678"
       y="-0.13776195"
       width="1.2547825"
       height="1.2873944">
      <feFlood
         flood-opacity="0.65098"
         flood-color="rgb(0,0,0)"
         result="flood"
         id="feFlood4612-9" />
      <feComposite
         in="flood"
         in2="SourceGraphic"
         operator="in"
         result="composite1"
         id="feComposite4614-3" />
      <feGaussianBlur
         in="composite1"
         stdDeviation="4"
         result="blur"
         id="feGaussianBlur4616-6" />
      <feOffset
         dx="1"
         dy="1"
         result="offset"
         id="feOffset4618-0" />
      <feComposite
         in="SourceGraphic"
         in2="offset"
         operator="over"
         result="composite2"
         id="feComposite4620-6" />
    </filter>
  </defs>
  <g
     inkscape:label="Layer 1"
     inkscape:groupmode="layer"
     id="layer1">
    <path
       id="path321"
       style="fill:#262626;fill-opacity:1;fill-rule:evenodd;stroke:#e5e5e5;stroke-width:1.05833;stroke-miterlimit:4;stroke-dasharray:none;stroke-opacity:1;filter:url(#filter1722)"
       d="m 84.666668,5.0270834 c 0,0 -9.260416,7.1437496 -9.260416,15.6104176 0,0.14036 0.0055,0.278222 0.0155,0.413928 a 9.2604174,9.2604174 0 0 0 9.244913,8.846489 9.2604174,9.2604174 0 0 0 9.244914,-8.846489 c 0.01001,-0.135706 0.0155,-0.273568 0.0155,-0.413928 a 9.2604174,9.2604174 0 0 0 -0.0047,-0.28112 c -0.07408,-3.077374 -1.353135,-5.969669 -2.93775,-8.395355 L 82.380503,22.754167 80.348586,21.320146 89.471543,9.875365 C 87.099837,6.9049332 84.666668,5.0270834 84.666668,5.0270834 Z" />
    <circle
       style="fill:#262626;fill-opacity:1;fill-rule:evenodd;stroke:#e5e5e5;stroke-width:1.05833;stroke-miterlimit:4;stroke-dasharray:none;stroke-opacity:1;filter:url(#filter1698)"
       id="path321-75"
       cx="16.933334"
       cy="16.933334"
       r="9.260417" />
    <path
       id="path321-35"
       style="fill:#262626;fill-opacity:1;fill-rule:evenodd;stroke:#e5e5e5;stroke-width:1.05833;stroke-miterlimit:4;stroke-dasharray:none;stroke-opacity:1;filter:url(#filter1686)"
       d="m 109.27292,7.9375003 v 3.1750007 3.968751 5.027083 a 9.2604172,9.2604172 0 0 0 9.26041,9.260417 9.2604172,9.2604172 0 0 0 9.26042,-9.260417 V 15.081252 11.112501 7.9375003 h -4.7625 v 3.1750007 h -2.11667 V 7.9375003 h -4.7625 v 3.1750007 h -2.11666 V 7.9375003 Z" />
    <path
       id="path321-9"
       style="fill:#262626;fill-opacity:1;fill-rule:evenodd;stroke:#e5e5e5;stroke-width:1.05833;stroke-miterlimit:4;stroke-dasharray:none;stroke-opacity:1;filter:url(#filter1674)"
       d="m 148.43125,6.8791668 -1.05833,6.3500012 -5.55625,-3.7041676 c 0,0 1.32292,6.8791676 1.32292,11.1125016 0,5.114387 4.14603,9.260417 9.26041,9.260417 5.11439,0 9.26042,-4.14603 9.26042,-9.260417 0,-4.233333 1.32292,-11.1125016 1.32292,-11.1125016 L 157.42709,13.229168 156.36875,6.8791668 152.4,12.170834 Z"
       sodipodi:nodetypes="cccsssccccc" />
    <path
       id="path321-1"
       style="fill:#262626;fill-opacity:1;fill-rule:evenodd;stroke:#e5e5e5;stroke-width:1.05833;stroke-miterlimit:4;stroke-dasharray:none;stroke-opacity:1;filter:url(#filter1662)"
       d="m 184.15,5.2916668 v 2.1166667 h -3.175 v 4.2333335 h 3.10937 a 9.2604172,9.2604172 0 0 0 -7.07812,8.995834 9.2604172,9.2604172 0 0 0 9.26041,9.260417 9.2604172,9.2604172 0 0 0 9.26042,-9.260417 9.2604172,9.2604172 0 0 0 -7.0652,-8.995834 h 3.09645 V 7.4083335 h -3.175 V 5.2916668 Z" />
    <ellipse
       style="fill:#262626;stroke:#e5e5e5;stroke-width:1.05833;stroke-miterlimit:4;stroke-dasharray:none;stroke-opacity:1;filter:url(#filter1650);fill-opacity:1"
       id="path1330"
       cx="180.18124"
       cy="13.758334"
       rx="1.4552083"
       ry="1.3229167" />
    <ellipse
       style="fill:#262626;stroke:#e5e5e5;stroke-width:1.05833;stroke-miterlimit:4;stroke-dasharray:none;stroke-opacity:1;filter:url(#filter1638);fill-opacity:1"
       id="path1330-6"
       cx="192.3895"
       cy="13.745765"
       rx="1.4552083"
       ry="1.3229167" />
    <path
       id="path321-2"
       style="fill:#e5e5e5;fill-opacity:1;fill-rule:evenodd;stroke:#1a1a1a;stroke-width:1.32291668;stroke-miterlimit:4;stroke-dasharray:none;stroke-opacity:1;filter:url(#filter1626)"
       d="m 84.666668,38.89375 c 0,0 -9.260416,7.14375 -9.260416,15.610418 0,0.14036 0.0055,0.278222 0.0155,0.413928 a 9.2604174,9.2604174 0 0 0 9.244913,8.846489 9.2604174,9.2604174 0 0 0 9.244914,-8.846489 c 0.01001,-0.135706 0.0155,-0.273568 0.0155,-0.413928 a 9.2604174,9.2604174 0 0 0 -0.0047,-0.28112 c -0.07408,-3.077374 -1.353135,-5.969669 -2.93775,-8.395355 L 82.380503,56.620834 80.348586,55.186813 89.471543,43.742032 C 87.099837,40.7716 84.666668,38.89375 84.666668,38.89375 Z" />
    <path
       id="path321-35-0"
       style="fill:#e5e5e5;fill-opacity:1;fill-rule:evenodd;stroke:#1a1a1a;stroke-width:1.32292;stroke-miterlimit:4;stroke-dasharray:none;stroke-opacity:1;filter:url(#filter1614)"
       d="m 109.41366,41.804166 v 3.175001 3.968751 5.027083 a 9.2604172,9.2604172 0 0 0 9.26041,9.260417 9.2604172,9.2604172 0 0 0 9.26042,-9.260417 v -5.027083 -3.968751 -3.175001 h -4.7625 v 3.175001 h -2.11667 v -3.175001 h -4.7625 v 3.175001 h -2.11666 v -3.175001 z" />
    <path
       id="path321-9-6"
       style="fill:#e5e5e5;fill-opacity:1;fill-rule:evenodd;stroke:#1a1a1a;stroke-width:1.32292;stroke-miterlimit:4;stroke-dasharray:none;stroke-opacity:1;filter:url(#filter1602)"
       d="m 148.57199,40.745833 -1.05833,6.350001 -5.55625,-3.704168 c 0,0 1.32292,6.879168 1.32292,11.112502 0,5.114387 4.14603,9.260417 9.26041,9.260417 5.11439,0 9.26042,-4.14603 9.26042,-9.260417 0,-4.233333 1.32292,-11.112502 1.32292,-11.112502 l -5.55625,3.704168 -1.05834,-6.350001 -3.96875,5.291667 z"
       sodipodi:nodetypes="cccsssccccc" />
    <path
       id="path321-1-6"
       style="fill:#e5e5e5;fill-opacity:1;fill-rule:evenodd;stroke:#1a1a1a;stroke-width:1.32292;stroke-miterlimit:4;stroke-dasharray:none;stroke-opacity:1;filter:url(#filter1590)"
       d="M 184.15001,39.158333 V 41.275 h -3.175 v 4.233334 h 3.10937 a 9.2604172,9.2604172 0 0 0 -7.07812,8.995834 9.2604172,9.2604172 0 0 0 9.26041,9.260417 9.2604172,9.2604172 0 0 0 9.26042,-9.260417 9.2604172,9.2604172 0 0 0 -7.0652,-8.995834 h 3.09645 V 41.275 h -3.175 v -2.116667 z" />
    <circle
       style="fill:#e5e5e5;fill-opacity:1;stroke:#1a1a1a;stroke-width:1.32292;stroke-miterlimit:4;stroke-dasharray:none;stroke-opacity:1;filter:url(#filter1578)"
       id="path1330-1"
       cx="180.18126"
       cy="47.625"
       r="1.3229167" />
    <circle
       style="fill:#e5e5e5;fill-opacity:1;stroke:#1a1a1a;stroke-width:1.32292;stroke-miterlimit:4;stroke-dasharray:none;stroke-opacity:1;filter:url(#filter1566)"
       id="path1330-6-8"
       cx="192.38951"
       cy="47.612431"
       r="1.3229167" />
    <circle
       style="fill:#e5e5e5;fill-opacity:1;fill-rule:evenodd;stroke:#1a1a1a;stroke-width:1.32291668;stroke-miterlimit:4;stroke-dasharray:none;stroke-opacity:1;opacity:1;filter:url(#filter1554)"
       id="path321-75-7"
       cx="16.933334"
       cy="50.800003"
       r="9.260417" />
    <path
       id="path1371"
       style="fill:#262626;fill-opacity:1;stroke:#d9d9d9;stroke-width:4;stroke-miterlimit:4;stroke-dasharray:none;stroke-opacity:1;filter:url(#filter4622)"
       d="M 233.39453,-135.48047 C 222.32422,-135.75342 194.75,-128.1875 185,-116 c -10.23344,12.7918 -19.00471,25.576566 -25.70898,36.507812 a 16.308588,16.308588 0 0 0 -5.16211,11.902344 16.308588,16.308588 0 0 0 7.17773,13.400391 l 12.17969,-11.847656 3.48633,3.583984 -10.82618,10.53125 a 16.308588,16.308588 0 0 0 4.29102,0.640625 16.308588,16.308588 0 0 0 11.13867,-4.400391 c 5.05387,-3.291274 10.44744,-8.218549 14.75391,-11.203125 a 32.000002,32.000002 0 0 0 11.37304,3.121094 C 209.7574,-59.716581 211,-55 211,-55 L 237.57031,-66.292969 225,-103.20508 l 4.24219,-2.20703 12.6914,37.265626 L 251,-72 c 0,0 -8,-24.000003 -9,-29 -0.27931,-1.39656 -0.64022,-2.79454 -1.11914,-4.21289 a 32.000002,32.000002 0 0 0 -7.46484,-12.60352 c -3.4447,-5.72591 6.49327,-11.41035 4.58398,-16.18359 -0.375,-0.9375 -2.05078,-1.41748 -4.60547,-1.48047 z m -42.26172,27.09375 a 5.5000004,5.5000004 0 0 1 5.5,5.5 5.5000004,5.5000004 0 0 1 -5.5,5.500001 5.5000004,5.5000004 0 0 1 -5.5,-5.500001 5.5000004,5.5000004 0 0 1 5.5,-5.5 z m -27.48633,34.322267 a 3.3684634,3.3684634 0 0 1 3.36914,3.369141 3.3684634,3.3684634 0 0 1 -3.36914,3.367187 3.3684634,3.3684634 0 0 1 -3.36914,-3.367187 3.3684634,3.3684634 0 0 1 3.36914,-3.369141 z"
       transform="matrix(0.26458334,0,0,0.26458334,-2.9104175,41.593845)" />
    <path
       id="path1371-2"
       style="fill:#e5e5e5;fill-opacity:1;stroke:#1a1a1a;stroke-width:4;stroke-miterlimit:4;stroke-dasharray:none;stroke-opacity:1;filter:url(#filter4622-0)"
       d="M 233.39453,-135.48047 C 222.32422,-135.75342 194.75,-128.1875 185,-116 c -10.23344,12.7918 -19.00471,25.576566 -25.70898,36.507812 a 16.308588,16.308588 0 0 0 -5.16211,11.902344 16.308588,16.308588 0 0 0 7.17773,13.400391 l 12.17969,-11.847656 3.48633,3.583984 -10.82618,10.53125 a 16.308588,16.308588 0 0 0 4.29102,0.640625 16.308588,16.308588 0 0 0 11.13867,-4.400391 c 5.05387,-3.291274 10.44744,-8.218549 14.75391,-11.203125 a 32.000002,32.000002 0 0 0 11.37304,3.121094 C 209.7574,-59.716581 211,-55 211,-55 L 237.57031,-66.292969 225,-103.20508 l 4.24219,-2.20703 12.6914,37.265626 L 251,-72 c 0,0 -8,-24.000003 -9,-29 -0.27931,-1.39656 -0.64022,-2.79454 -1.11914,-4.21289 a 32.000002,32.000002 0 0 0 -7.46484,-12.60352 c -3.4447,-5.72591 6.49327,-11.41035 4.58398,-16.18359 -0.375,-0.9375 -2.05078,-1.41748 -4.60547,-1.48047 z m -42.26172,27.09375 a 5.5000004,5.5000004 0 0 1 5.5,5.5 5.5000004,5.5000004 0 0 1 -5.5,5.500001 5.5000004,5.5000004 0 0 1 -5.5,-5.500001 5.5000004,5.5000004 0 0 1 5.5,-5.5 z m -27.48633,34.322267 a 3.3684634,3.3684634 0 0 1 3.36914,3.369141 3.3684634,3.3684634 0 0 1 -3.36914,3.367187 3.3684634,3.3684634 0 0 1 -3.36914,-3.367187 3.3684634,3.3684634 0 0 1 3.36914,-3.369141 z"
       transform="matrix(0.26458334,0,0,0.26458334,-2.7227712,75.588233)" />
  </g>
</svg>
